<?xml version="1.0" encoding="UTF-8"?>
<svg version="1.1" xmlns="http://www.w3.org/2000/svg" width="60" height="60">
<path d="M0 0 C19.8 0 39.6 0 60 0 C60 19.8 60 39.6 60 60 C40.2 60 20.4 60 0 60 C0 40.2 0 20.4 0 0 Z " fill="#01E2FF" transform="translate(0,0)"/>
<path d="M0 0 C2.69665769 3.32309366 5.27702962 6.69469354 7.75 10.1875 C8.67039062 11.47720703 8.67039062 11.47720703 9.609375 12.79296875 C11 15 11 15 11 17 C8.69 17.33 6.38 17.66 4 18 C3.67 18.99 3.34 19.98 3 21 C2.34 21 1.68 21 1 21 C0.67 20.01 0.34 19.02 0 18 C-2.97 17.67 -5.94 17.34 -9 17 C-9 19.97 -9 22.94 -9 26 C-12.96 26 -16.92 26 -21 26 C-19.58655738 22.46639345 -18.61378655 20.14551227 -16.5 17.1875 C-16.0771875 16.58292969 -15.654375 15.97835937 -15.21875 15.35546875 C-14.8165625 14.90816406 -14.414375 14.46085937 -14 14 C-13.34 14 -12.68 14 -12 14 C-12 14.66 -12 15.32 -12 16 C-8.65707389 12.8980055 -6.23755199 9.56424638 -3.75 5.75 C-3.04359375 4.67234375 -2.3371875 3.5946875 -1.609375 2.484375 C-1.07828125 1.66453125 -0.5471875 0.8446875 0 0 Z " fill="#F8FDFF" transform="translate(31,17)"/>
<path d="M0 0 C1.65 0 3.3 0 5 0 C5.99 2.31 6.98 4.62 8 7 C7.01 7 6.02 7 5 7 C5 6.34 5 5.68 5 5 C3.35 5 1.7 5 0 5 C0 4.34 0 3.68 0 3 C1.32 3 2.64 3 4 3 C4 2.34 4 1.68 4 1 C2.68 0.67 1.36 0.34 0 0 Z " fill="#C7F6FF" transform="translate(24,36)"/>
<path d="M0 0 C0.33 0 0.66 0 1 0 C1 2.64 1 5.28 1 8 C-0.32 7.67 -1.64 7.34 -3 7 C-2.01 4.69 -1.02 2.38 0 0 Z " fill="#C6F5FF" transform="translate(37,35)"/>
</svg>
